# xmcd
#
# Track frame offsets:
#	150
#	12112
#	23602
#	34518
#	50626
#	63019
#	79697
#	95541
#	118365
#	132046
#	144657
#	159302
#
# Disc length: 2240 seconds
#
# Revision: 0
# Processed by: cddbd v1.5.1PL2 Copyright (c) Steve Scherf et al.
# Submitted via: dBpowerAMP V4.0
#
DISCID=9008be0c
DTITLE=Johnny Cash - The Christmas Spirit
DYEAR=1900
DGENRE=Christmas
TTITLE0=The Little Drummer Boy
TTITLE1=I Heard the Bells on Christmas Day
TTITLE2=Blue Christmas
TTITLE3=The Gifts They Gave
TTITLE4=Here Was a Man
TTITLE5=Christmas As I Knew It
TTITLE6=Silent Night
TTITLE7=The Christmas Spirit
TTITLE8=It Came Upon a Midnight clear
TTITLE9=Ringing the Bells for Jim
TTITLE10=We Are the Shepherds
TTITLE11=Who Kept the Sheep
EXTD=
EXTT0=
EXTT1=
EXTT2=
EXTT3=
EXTT4=
EXTT5=
EXTT6=
EXTT7=
EXTT8=
EXTT9=
EXTT10=
EXTT11=
PLAYORDER=
